<svg width="23" height="24" viewBox="0 0 23 24" fill="none" xmlns="http://www.w3.org/2000/svg">
<g id="Group">
<path id="Vector" d="M19.6844 7.48242H3.08301V20.3158H19.6844V7.48242Z" stroke="white" stroke-miterlimit="10" stroke-linecap="round" stroke-linejoin="round"/>
<g id="Group_2">
<path id="Vector_2" d="M8.0309 9.64258H5.62207V18.1545H8.0309V9.64258Z" stroke="white" stroke-miterlimit="10" stroke-linecap="round" stroke-linejoin="round"/>
<path id="Vector_3" d="M12.5885 9.64258H10.1797V18.1545H12.5885V9.64258Z" stroke="white" stroke-miterlimit="10" stroke-linecap="round" stroke-linejoin="round"/>
<path id="Vector_4" d="M17.1456 9.64258H14.7368V18.1545H17.1456V9.64258Z" stroke="white" stroke-miterlimit="10" stroke-linecap="round" stroke-linejoin="round"/>
</g>
<path id="Vector_5" d="M21.768 23H1V21.625C1 20.9047 1.58593 20.3154 2.30207 20.3154H20.4659C21.1821 20.3154 21.768 20.9047 21.768 21.625V23Z" stroke="white" stroke-miterlimit="10" stroke-linecap="round" stroke-linejoin="round"/>
<path id="Vector_6" d="M1 7.48214H21.768V6.17262L11.4166 1L1 6.17262V7.48214Z" stroke="#04BBF2" stroke-miterlimit="10" stroke-linecap="round" stroke-linejoin="round"/>
<path id="Vector_7" d="M11.2568 5.75673C11.9956 5.75673 12.5946 5.15776 12.5946 4.41889C12.5946 3.68003 11.9956 3.08105 11.2568 3.08105C10.5179 3.08105 9.91891 3.68003 9.91891 4.41889C9.91891 5.15776 10.5179 5.75673 11.2568 5.75673Z" stroke="white" stroke-miterlimit="10" stroke-linecap="round" stroke-linejoin="round"/>
</g>
</svg>
